<svg width="25" height="27" viewBox="0 0 25 27" fill="none" xmlns="http://www.w3.org/2000/svg">
<g id="Group">
<path id="Vector" d="M3.83501 26.0008C5.40075 26.0008 6.67003 24.7571 6.67003 23.223C6.67003 21.6889 5.40075 20.4453 3.83501 20.4453C2.26928 20.4453 1 21.6889 1 23.223C1 24.7571 2.26928 26.0008 3.83501 26.0008Z" stroke="#72AEC8" stroke-width="2" stroke-linecap="round" stroke-linejoin="round"/>
<path id="Vector_2" d="M19.4288 26.0008C20.9945 26.0008 22.2638 24.7571 22.2638 23.223C22.2638 21.6889 20.9945 20.4453 19.4288 20.4453C17.863 20.4453 16.5938 21.6889 16.5938 23.223C16.5938 24.7571 17.863 26.0008 19.4288 26.0008Z" stroke="#72AEC8" stroke-width="2" stroke-linecap="round" stroke-linejoin="round"/>
<path id="Vector_3" d="M19.4276 20.4441H3.83501V1H1" stroke="#72AEC8" stroke-width="2" stroke-linecap="round" stroke-linejoin="round"/>
<path id="Vector_4" d="M3.83594 3.78125L23.681 5.17012L22.2635 14.8922H3.83594" stroke="#72AEC8" stroke-width="2" stroke-linecap="round" stroke-linejoin="round"/>
</g>
</svg>
