<svg width="30" height="24" viewBox="0 0 30 24" fill="none" xmlns="http://www.w3.org/2000/svg">
<g id="brandico:mastercard" clip-path="url(#clip0_17_783)">
<path id="Vector" d="M1.39593 2.85159C0.62523 2.85159 0 3.47649 0 4.24752V20.2957C0 21.0666 0.62532 21.6916 1.39593 21.6916H28.6041C29.3748 21.6916 30 21.0667 30 20.2957V4.24749C30 3.47658 29.3747 2.85156 28.6041 2.85156H1.3959L1.39593 2.85159ZM9.83718 5.11941C11.5496 5.11941 13.1223 5.71518 14.3569 6.71034C13.3182 7.63971 12.5435 8.86074 12.1613 10.2447H12.7603C13.1131 9.10299 13.754 8.08647 14.5988 7.28034C15.4435 8.08647 16.0844 9.10299 16.4372 10.2447H17.0456C16.6581 8.86803 15.8823 7.65429 14.8444 6.73098C16.0813 5.72319 17.6602 5.11938 19.38 5.11938C23.3487 5.11938 26.5659 8.33694 26.5659 12.3063C26.5659 16.2756 23.3487 19.4932 19.38 19.4932C17.6316 19.4932 16.0284 18.8691 14.7825 17.831C15.897 16.8614 16.7186 15.5615 17.0944 14.0828H16.5084C16.1748 15.3239 15.5032 16.4278 14.5987 17.291C13.6942 16.4278 13.0236 15.3239 12.69 14.0828H12.1321C12.5101 15.5401 13.321 16.8218 14.4187 17.7822C13.1751 18.8075 11.5782 19.4238 9.83715 19.4238C5.86845 19.4238 2.65125 16.2217 2.65125 12.2716C2.65125 8.32149 5.86845 5.11941 9.83718 5.11941ZM18.8409 10.1716C17.9775 10.1716 17.1375 10.9265 17.1375 12.3438C17.1375 13.2836 17.5912 13.9038 18.4837 13.9038C18.7361 13.9039 19.1381 13.8007 19.1381 13.8007L19.2712 12.9794C19.2712 12.9794 18.9044 13.165 18.6525 13.165C18.122 13.165 17.9091 12.757 17.9091 12.3185C17.9091 11.4289 18.3655 10.9394 18.8737 10.9394C19.2548 10.9394 19.5609 11.155 19.5609 11.155L19.6828 10.3563C19.6828 10.3563 19.2297 10.1716 18.8409 10.1716H18.8409ZM26.1 10.241L25.3491 10.2428L25.1878 11.231C25.1878 11.231 24.9055 10.8475 24.4641 10.8475C23.7777 10.8475 23.2059 11.6629 23.2059 12.6007C23.2059 13.206 23.5102 13.7997 24.1341 13.7997C24.5828 13.7997 24.8316 13.4913 24.8316 13.4913L24.7987 13.7547H25.5281L26.1 10.241ZM4.59186 10.2513L3.99375 13.7735H4.71468L5.17032 11.1176L5.23782 13.7735H5.75343L6.71532 11.1176L6.28875 13.7735H7.05468L7.64532 10.2513H6.46032L5.7225 12.4122L5.68407 10.2513H4.59189L4.59186 10.2513ZM12.1237 10.48C12.1075 10.4964 11.6878 12.9162 11.6878 13.211C11.6878 13.6473 11.9324 13.8422 12.2766 13.8391C12.5232 13.837 12.7141 13.775 12.8025 13.7491C12.8117 13.7466 12.8297 13.7416 12.8297 13.7416L12.9225 13.1116C12.872 13.1116 12.7977 13.1332 12.7322 13.1332C12.4752 13.1332 12.4468 12.9965 12.4631 12.895L12.6703 11.6097H13.0612L13.1559 10.9131H12.7875L12.8625 10.48H12.1237ZM20.8378 10.8344C20.3346 10.8344 19.9491 11.0003 19.9491 11.0003L19.8422 11.6472C19.8422 11.6472 20.1606 11.515 20.6419 11.515C20.9151 11.515 21.1153 11.5463 21.1153 11.7738C21.1153 11.912 21.0909 11.9632 21.0909 11.9632C21.0909 11.9632 20.8749 11.9444 20.775 11.9444C20.1404 11.9444 19.4737 12.2225 19.4737 13.0591C19.4737 13.7183 19.9114 13.8691 20.1825 13.8691C20.7002 13.8691 20.9235 13.5251 20.9353 13.5241L20.9109 13.811H21.5569L21.8456 11.741C21.8457 10.8626 21.0976 10.8344 20.8378 10.8344V10.8344ZM8.72061 10.8382C8.21559 10.8382 7.82811 11.0041 7.82811 11.0041L7.72125 11.651C7.72125 11.651 8.04075 11.5188 8.52375 11.5188C8.79801 11.5188 8.99907 11.5502 8.99907 11.7775C8.99907 11.9156 8.97468 11.9669 8.97468 11.9669C8.97468 11.9669 8.75799 11.9482 8.65782 11.9482C8.02083 11.9482 7.35189 12.2258 7.35189 13.0619C7.35189 13.7207 7.79043 13.8719 8.0625 13.8719C8.58213 13.8719 8.8062 13.5279 8.81814 13.5269L8.79375 13.8138H9.4425L9.73218 11.7447C9.73218 10.8669 8.98137 10.8381 8.72061 10.8381V10.8382ZM11.0119 10.8382C10.4696 10.8382 9.91875 11.0571 9.91875 11.8047C9.91875 12.6519 10.8366 12.5663 10.8366 12.9231C10.8366 13.1613 10.5804 13.181 10.3828 13.181C10.0408 13.181 9.73329 13.0628 9.73218 13.0685L9.63375 13.7153C9.65145 13.7208 9.84189 13.8063 10.4569 13.8063C10.622 13.8063 11.5659 13.8482 11.5659 12.865C11.5659 11.9459 10.6922 12.128 10.6922 11.7588C10.6922 11.5749 10.8341 11.5169 11.0944 11.5169C11.1977 11.5169 11.596 11.5497 11.596 11.5497L11.6878 10.8963C11.6878 10.8964 11.4309 10.8382 11.0119 10.8382H11.0119ZM14.4019 10.8382C13.6483 10.8383 13.0903 11.6487 13.0903 12.5641C13.0903 13.6207 13.7894 13.8719 14.385 13.8719C14.9348 13.8719 15.1772 13.7491 15.1772 13.7491L15.3084 13.0282C15.3084 13.0282 14.8902 13.2119 14.5125 13.2119C13.7077 13.2119 13.8488 12.6128 13.8488 12.6128H15.3722C15.3722 12.6128 15.4706 12.1287 15.4706 11.9313C15.4706 11.4387 15.2248 10.8382 14.4019 10.8382H14.4019ZM17.131 10.8691C16.7914 10.8691 16.5394 11.3257 16.5394 11.3257L16.6069 10.9066H15.9019L15.4285 13.7997H16.2075C16.4282 12.5643 16.4684 11.5611 16.995 11.7447C17.0872 11.2665 17.1766 11.0818 17.2772 10.8794C17.2772 10.8794 17.2299 10.8691 17.1309 10.8691H17.131ZM23.4431 10.8691C23.1036 10.8691 22.8516 11.3257 22.8516 11.3257L22.9191 10.9066H22.2141L21.7406 13.7997H22.5187C22.7395 12.5643 22.7808 11.5611 23.3072 11.7447C23.3995 11.2665 23.4889 11.0818 23.5894 10.8794C23.5894 10.8794 23.5421 10.8691 23.4431 10.8691H23.4431ZM14.3981 11.4907C14.8261 11.4907 14.7478 11.9738 14.7478 12.0128H13.905C13.905 11.963 13.9847 11.4907 14.3981 11.4907H14.3981ZM24.5822 11.5469C24.8546 11.5468 24.9947 11.7308 24.9947 12.1638C24.9947 12.5566 24.7966 13.0816 24.3862 13.0816C24.1139 13.0816 23.9859 12.8567 23.9859 12.5041C23.9859 11.9276 24.2497 11.5469 24.5822 11.5469H24.5822ZM20.8387 12.5313C20.9499 12.5314 20.9728 12.5422 20.9916 12.5472C20.9889 12.5468 20.9884 12.5473 20.9991 12.5491C21.0131 12.6779 20.9212 13.2822 20.4769 13.2822C20.2477 13.2822 20.1891 13.1 20.1891 12.9925C20.1891 12.7829 20.2982 12.5313 20.8387 12.5313ZM8.72157 12.5341C8.84778 12.5342 8.86155 12.5483 8.88282 12.5519C8.89692 12.6807 8.80464 13.2841 8.35875 13.2841C8.12874 13.2841 8.06907 13.1028 8.06907 12.9953C8.06907 12.7858 8.17887 12.5341 8.72157 12.5341Z" fill="#D7DDDF"/>
</g>
<defs>
<clipPath id="clip0_17_783">
<rect width="30" height="24" fill="white"/>
</clipPath>
</defs>
</svg>
