<svg width="60" height="24" viewBox="0 0 60 24" fill="none" xmlns="http://www.w3.org/2000/svg">
<g id="fa-brands:dhl">
<path id="Vector" d="M22.3125 16.2344H27.8156L29.9062 13.4031H24.4031L22.3125 16.2344ZM0 14.5188V15.1187H7.66875L8.10938 14.5188H0ZM16.2094 13.4031C15.3937 13.4031 15.6469 13.0656 15.7781 12.8875C16.0406 12.5313 16.4906 11.9125 16.7531 11.5656C17.0156 11.2188 17.0156 11.0125 16.4906 11.0125H11.7094L7.85625 16.2437H17.2406C20.3438 16.2437 22.0688 14.1344 22.6031 13.4031H16.2094ZM45.975 12.7563L49.6594 7.75H43.8281L40.1438 12.7563H45.975ZM8.93438 13.4031H0V14.0031H8.49375L8.93438 13.4031ZM19.3406 10.9094C19.0781 11.2656 18.6375 11.8844 18.375 12.2406C18.2437 12.4281 17.9906 12.7563 18.8063 12.7563H23.0812C23.0812 12.7563 23.7656 11.8188 24.3469 11.0313C25.1344 9.9625 24.4125 7.75 21.6094 7.75H10.5562L8.64375 10.3563H19.0875C19.6125 10.3563 19.6031 10.5625 19.3406 10.9094ZM0 16.2344H6.85312L7.29375 15.6344H0V16.2344ZM30.2812 16.2344H35.7844L37.875 13.4031H32.3719C32.3625 13.4031 30.2812 16.2344 30.2812 16.2344ZM51.0938 16.2437H60V15.6438H51.5344L51.0938 16.2437ZM53.1844 13.4031L52.7437 14.0031H60V13.4031H53.1844ZM51.9187 15.1187H60V14.5188H52.3594L51.9187 15.1187ZM36.525 7.75L34.4156 10.6188H31.9594L34.0687 7.75H28.5656L24.8812 12.7563H38.3438L42.0281 7.75H36.525ZM39.6656 13.4031C39.6656 13.4031 39.2625 13.9563 39.0656 14.2188C38.3719 15.1563 38.9813 16.2437 41.2406 16.2437H50.0813L52.1719 13.4031H39.6656Z" fill="#D7DDDF"/>
</g>
</svg>
