<svg width="30" height="24" viewBox="0 0 30 24" fill="none" xmlns="http://www.w3.org/2000/svg">
<g id="brandico:visa">
<path id="Vector" d="M1.2 2.57812C0.53739 2.57812 0 3.11536 0 3.77812V20.2181C0 20.8809 0.53766 21.4181 1.2 21.4181H28.8C29.4626 21.4181 30 20.8809 30 20.2181V3.77812C30 3.11539 29.4623 2.57812 28.8 2.57812H1.2ZM17.9175 8.1928C18.6476 8.1928 19.2328 8.35408 19.6059 8.50405L19.3509 10.1081L19.1822 10.0228C18.8346 9.87283 18.3881 9.7285 17.7722 9.73873C17.0349 9.73873 16.6941 10.0676 16.6941 10.3753C16.6898 10.722 17.0923 10.9507 17.7506 11.2931C18.8371 11.8214 19.3393 12.462 19.3322 13.3041C19.3176 14.8406 18.0325 15.8334 16.0528 15.8334C15.2082 15.8241 14.3945 15.6453 13.9547 15.4387L14.2191 13.7812L14.4619 13.8994C15.0804 14.1757 15.4809 14.2875 16.2347 14.2875C16.776 14.2875 17.3569 14.0609 17.3616 13.5647C17.3651 13.2407 17.1187 13.0097 16.3856 12.6469C15.6713 12.2928 14.7242 11.6996 14.7347 10.6359C14.7459 9.19711 16.0566 8.1928 17.9175 8.1928ZM2.65311 8.42812H5.69343C6.10284 8.4436 6.43338 8.57542 6.5475 9.01969L7.20282 12.4022C7.20291 12.4025 7.2027 12.4037 7.20282 12.4041L7.39968 13.4175L9.24561 8.42812H11.2425L8.27436 15.7313L6.27936 15.7331L4.69125 9.83998C5.63619 10.3406 6.44067 10.9198 6.90657 11.7169C6.78645 11.4647 6.62817 11.18 6.42564 10.8994C6.18978 10.5726 5.68041 10.1507 5.4675 9.97123C4.7256 9.34582 3.71805 8.84071 2.62968 8.57344L2.65311 8.42812ZM12.0366 8.43655H13.9894L12.7678 15.7284H10.815L12.0366 8.43655ZM23.0662 8.43655H24.5456L26.0944 15.7284H24.3188C24.3188 15.7284 24.1426 14.8907 24.0853 14.6353C23.8062 14.6353 21.8543 14.6325 21.6347 14.6325C21.5604 14.8299 21.2316 15.7284 21.2316 15.7284H19.2225L22.0641 9.04219C22.2652 8.56705 22.6082 8.43655 23.0662 8.43655ZM23.2116 10.3978C23.1155 10.669 22.9482 11.107 22.9594 11.0878C22.9594 11.0878 22.3582 12.691 22.201 13.1072L23.7806 13.1062C23.6339 12.4109 23.487 11.7156 23.34 11.0204L23.2116 10.3979V10.3978Z" fill="#D7DDDF"/>
</g>
</svg>
