<svg width="38" height="24" viewBox="0 0 38 24" fill="none" xmlns="http://www.w3.org/2000/svg">
<g id="arcticons:post">
<path id="Vector" d="M22.2476 6.38515L19.8117 9.72915C19.4389 9.37619 18.9854 9.11985 18.4908 8.98249C17.9961 8.84514 17.4754 8.83094 16.974 8.94115C16.4726 9.05136 16.0058 9.28262 15.6143 9.61475C15.2229 9.94688 14.9187 10.3698 14.7283 10.8465C14.5378 11.3233 14.467 11.8394 14.522 12.3498C14.5769 12.8602 14.756 13.3494 15.0435 13.7747C15.331 14.2 15.7183 14.5484 16.1715 14.7896C16.6246 15.0308 17.13 15.1574 17.6433 15.1584C18.5489 15.2401 19.451 14.9677 20.16 14.3984C21.0063 13.735 24.8451 8.46881 26.5377 4.96173M26.5377 4.96094H34.4369H26.5377Z" stroke="#D7DDDF" stroke-linecap="round" stroke-linejoin="round"/>
<path id="Vector_2" d="M34.4375 4.95569C27.5777 15.3661 22.663 19.3901 17.9265 19.307C13.19 19.2239 10.355 16.043 10.355 12.0023C10.3494 10.6283 10.7324 9.28065 11.46 8.11503C12.1876 6.94941 13.23 6.01332 14.4668 5.41484C15.7037 4.81635 17.0846 4.57987 18.4501 4.73271C19.8157 4.88554 21.1101 5.42145 22.1841 6.27856M3.5625 4.95569L7.36171 11.2851M7.3625 11.2589C7.5112 8.84731 8.56465 6.58066 10.3123 4.91215L3.5625 4.95648L7.3625 11.2589Z" stroke="#D7DDDF" stroke-linecap="round" stroke-linejoin="round"/>
</g>
</svg>
